<svg width="24" height="24" viewBox="0 0 24 24" fill="none" xmlns="http://www.w3.org/2000/svg">
<path d="M14.6254 16.5539H12.8887V10.875C12.8887 10.7719 12.8043 10.6875 12.7012 10.6875H11.2949C11.1918 10.6875 11.1074 10.7719 11.1074 10.875V16.5539H9.37538C9.21835 16.5539 9.13163 16.7344 9.22772 16.8563L11.8527 20.1773C11.8703 20.1998 11.8927 20.2179 11.9183 20.2303C11.9438 20.2428 11.9719 20.2493 12.0004 20.2493C12.0288 20.2493 12.0569 20.2428 12.0825 20.2303C12.1081 20.2179 12.1305 20.1998 12.148 20.1773L14.773 16.8563C14.8691 16.7344 14.7824 16.5539 14.6254 16.5539Z" fill="white"/>
<path d="M19.0174 8.59453C17.944 5.76328 15.2088 3.75 12.0049 3.75C8.80103 3.75 6.06587 5.76094 4.99243 8.59219C2.98384 9.11953 1.50024 10.95 1.50024 13.125C1.50024 15.7148 3.5979 17.8125 6.1854 17.8125H7.12524C7.22837 17.8125 7.31274 17.7281 7.31274 17.625V16.2188C7.31274 16.1156 7.22837 16.0312 7.12524 16.0312H6.1854C5.39556 16.0312 4.65259 15.7172 4.09946 15.1477C3.54868 14.5805 3.25571 13.8164 3.28149 13.0242C3.30259 12.4055 3.51353 11.8242 3.89556 11.3344C4.28696 10.8352 4.8354 10.4719 5.44478 10.3102L6.33306 10.0781L6.65884 9.22031C6.8604 8.68594 7.14165 8.18672 7.49556 7.73438C7.84494 7.28603 8.25881 6.89191 8.72368 6.56484C9.68696 5.8875 10.8213 5.52891 12.0049 5.52891C13.1885 5.52891 14.3229 5.8875 15.2862 6.56484C15.7526 6.89297 16.1651 7.28672 16.5143 7.73438C16.8682 8.18672 17.1495 8.68828 17.351 9.22031L17.6745 10.0758L18.5604 10.3102C19.8307 10.6523 20.719 11.8078 20.719 13.125C20.719 13.9008 20.4167 14.632 19.8682 15.1805C19.5993 15.451 19.2793 15.6655 18.9269 15.8115C18.5745 15.9576 18.1966 16.0323 17.8151 16.0312H16.8752C16.7721 16.0312 16.6877 16.1156 16.6877 16.2188V17.625C16.6877 17.7281 16.7721 17.8125 16.8752 17.8125H17.8151C20.4026 17.8125 22.5002 15.7148 22.5002 13.125C22.5002 10.9523 21.0213 9.12422 19.0174 8.59453Z" fill="white"/>
</svg>
