<svg width="80" height="52" viewBox="0 0 80 52" fill="none" xmlns="http://www.w3.org/2000/svg">
<path d="M76.2695 40.714C76.0187 40.345 76.3736 37.8551 76.5138 35.0893C76.6792 32.3052 76.5504 29.2752 76.3398 27.5082C74.4259 29.6724 72.3008 31.5582 70.0606 33.1492C66.0528 35.9729 61.5854 37.9141 57.0309 38.8371C52.4721 39.7601 47.8794 39.6551 43.6078 38.705C39.3351 37.7451 35.3719 35.9612 31.9482 33.5297C28.5294 31.133 25.6383 27.8436 23.8308 24.1219C22.6692 21.7379 21.8767 19.1568 21.6321 16.4695C21.3722 13.7944 21.749 10.9701 22.906 8.46262C24.0433 5.95129 25.8829 3.78765 28.1296 2.38368C30.3781 0.992211 32.8537 0.291671 35.2615 0.120679C40.0717 -0.219613 44.7658 1.59726 47.7879 4.98125C50.8064 8.30821 52.2181 12.6415 52.4868 16.7644C52.7659 20.9159 51.9663 24.9817 50.4261 28.5275C48.9 32.0672 46.7597 35.0985 44.421 37.6291C39.7046 42.694 34.4416 45.9891 29.5401 48.2938C24.6068 50.581 19.8017 51.5642 15.7298 51.3749C11.6377 51.1907 8.40103 49.9169 6.12289 48.4749C3.83618 47.0167 2.47739 45.4264 1.74065 44.2707C0.996257 43.113 0.833142 42.3928 0.940017 42.293C1.19519 42.1092 1.53414 42.1502 2.23334 42.7899C2.96867 43.3874 4.08759 44.6285 6.56152 46.0468C9.01515 47.383 13.0284 49.0199 18.961 48.1882C21.9158 47.7774 25.3015 46.7148 28.974 44.8179C32.6289 42.9093 36.667 40.265 40.4049 36.5503C43.2035 33.776 45.5134 30.5782 46.9777 27.1194C48.4363 23.7149 48.9667 19.9858 48.5889 16.5236C48.2196 13.0659 46.8933 9.91275 44.818 7.69853C42.8169 5.51576 39.9754 4.32748 37.1582 4.15276C34.353 3.94796 31.597 4.68768 29.6548 6.11606C27.6324 7.49599 26.4685 9.6303 25.8785 11.6589C24.8598 15.8984 26.2124 19.7749 27.3649 22.1677C30.0798 27.7993 35.0576 31.1779 39.7142 33.2105C44.4416 35.1971 49.0839 35.6848 52.9873 35.4102C60.8851 34.7548 65.7533 31.4569 68.036 29.9832C71.7209 27.32 72.6541 26.0964 73.58 25.1762C71.9596 25.0464 69.6999 24.5689 67.8395 23.8235C65.9863 23.1166 64.4988 22.167 64.0868 21.6708C65.8611 21.7266 68.2884 22.0527 70.922 22.1016C73.5482 22.1718 76.3491 21.943 78.6032 21.5158C78.6651 21.864 79.5806 24.7097 79.5423 28.6256C79.5783 32.5133 78.4419 37.457 76.2695 40.714Z" fill="#37B446"/>
</svg>
