<svg width="20" height="20" viewBox="0 0 20 20" fill="none" xmlns="http://www.w3.org/2000/svg">
<path d="M10 0C4.48598 0 0 4.48598 0 10C0 15.514 4.48598 20 10 20C15.514 20 20 15.514 20 10C20 4.48598 15.514 0 10 0ZM10 18.3441C5.39906 18.3441 1.6559 14.6009 1.6559 9.99996C1.6559 5.39898 5.39906 1.6559 10 1.6559C14.6009 1.6559 18.3441 5.39898 18.3441 10C18.3441 14.601 14.6009 18.3441 10 18.3441Z" fill="#37B446"/>
<path d="M10.0001 2.62073C5.93116 2.62073 2.62085 5.93104 2.62085 9.99995C2.62085 14.0689 5.93116 17.3792 10.0001 17.3792C14.069 17.3792 17.3793 14.0689 17.3793 9.99995C17.3793 5.93104 14.069 2.62073 10.0001 2.62073ZM13.956 11.6762H9.51757C9.25112 11.6762 9.03515 11.4602 9.03515 11.1937V6.71663C9.03515 6.45018 9.25112 6.2342 9.51757 6.2342C9.78401 6.2342 10 6.45018 10 6.71663V10.7113H13.956C14.2225 10.7113 14.4385 10.9273 14.4385 11.1937C14.4385 11.4601 14.2225 11.6762 13.956 11.6762Z" fill="#37B446"/>
</svg>
