<svg width="20" height="19" viewBox="0 0 20 19" fill="none" xmlns="http://www.w3.org/2000/svg">
<path d="M11.7655 5.70009L11.5694 5.51009C11.0838 4.9971 11.1679 4.75959 11.6441 4.27509L14.1839 1.66259C14.9403 0.883595 15.0803 0.513095 15.7993 1.20659L15.9954 1.39659L11.7655 5.70009ZM12.2604 6.12759L16.3689 1.94759C17.0226 2.84059 18.5539 5.24409 17.7976 7.02059C17.1159 8.60709 16.7798 8.68309 15.9301 9.87059C14.2026 11.8751 12.0269 14.0221 10.3275 15.6371C9.15096 16.5016 9.10427 16.9006 7.52622 17.5371C5.84545 18.2116 3.41767 16.6916 2.50259 16.0551L6.61113 11.8751L7.71297 13.4141C8.03045 13.8511 8.83348 13.3571 9.39374 12.7871C10.3649 11.7896 12.3631 9.76609 13.1288 8.9206C13.6797 8.3601 14.1746 7.54309 13.7451 7.21059L12.2604 6.12759ZM1.97034 15.6751L1.77425 15.4756C1.13929 14.7726 1.50346 14.6206 2.25981 13.8606L4.81831 11.2766C5.29453 10.8111 5.51863 10.7066 6.00419 11.1721L6.19094 11.3716L1.97034 15.6751Z" fill="#37B446"/>
</svg>
