<svg width="15" height="15" viewBox="0 0 15 15" fill="none" xmlns="http://www.w3.org/2000/svg">
<path d="M7.09483 14.409C7.32758 14.5202 7.6197 14.5195 7.85245 14.4083C14.1953 11.3597 14.6457 5.40329 14.6402 3.70966C14.6396 3.57354 14.5946 3.44053 14.5108 3.32693C14.427 3.21332 14.308 3.12404 14.1684 3.07004L7.79545 0.54412C7.69403 0.50412 7.58439 0.483521 7.47356 0.483643C7.36272 0.483765 7.25314 0.504606 7.15183 0.544829L0.823243 3.07075C0.685649 3.12478 0.568316 3.21307 0.485223 3.32509C0.40213 3.43711 0.356781 3.56815 0.354576 3.70258C0.32766 5.3877 0.706868 11.3568 7.09483 14.409ZM4.86708 6.29083L6.68237 7.91504L10.081 4.87416L11.2004 5.87575L6.68237 9.9182L3.74766 7.29241L4.86708 6.29083Z" fill="#37B446"/>
</svg>
