<svg width="20" height="20" viewBox="0 0 20 20" fill="none" xmlns="http://www.w3.org/2000/svg">
<path d="M9.96094 0C4.46836 0 0 4.46836 0 9.96094C0 15.4535 4.46836 20 9.96094 20C15.4535 20 20 15.4535 20 9.96094C20 4.46836 15.4535 0 9.96094 0ZM14.1406 12.8906C13.3487 12.8906 12.6503 12.4937 12.2259 11.8908C11.6887 12.4989 10.9123 12.8906 10.0391 12.8906C8.42371 12.8906 7.10938 11.5763 7.10938 9.96094C7.10938 8.34559 8.42371 7.03125 10.0391 7.03125C10.7011 7.03125 11.3057 7.26035 11.7969 7.63215V7.61719C11.7969 7.29332 12.0589 7.03125 12.3828 7.03125C12.7067 7.03125 12.9688 7.29332 12.9688 7.61719C12.9688 8.92031 12.9688 9.24316 12.9688 10.5469C12.9688 11.1929 13.4946 11.7188 14.1406 11.7188C14.7866 11.7188 15.3125 11.1929 15.3125 10.5469C15.3125 6.62535 12.7175 4.6875 10.0391 4.6875C7.13113 4.6875 4.76562 7.05301 4.76562 9.96094C4.76562 12.8689 7.13113 15.2344 10.0391 15.2344C11.2109 15.2344 12.3193 14.859 13.2446 14.1483C13.8626 13.6765 14.5704 14.6079 13.9587 15.0776C12.8263 15.9468 11.4713 16.4062 10.0391 16.4062C6.48512 16.4062 3.59375 13.5149 3.59375 9.96094C3.59375 6.40699 6.48512 3.51562 10.0391 3.51562C13.2772 3.51562 16.4844 5.90371 16.4844 10.5469C16.4844 11.8395 15.4332 12.8906 14.1406 12.8906Z" fill="#37B446"/>
</svg>
