<svg width="16" height="16" viewBox="0 0 16 16" fill="none" xmlns="http://www.w3.org/2000/svg">
<path d="M15.6413 12.6447L13.1703 10.1735C12.6782 9.68332 11.8631 9.69821 11.3538 10.2077L10.109 11.4523C10.0303 11.409 9.9489 11.3637 9.86331 11.3156C9.07718 10.8801 8.00124 10.283 6.86903 9.15001C5.73346 8.01458 5.13589 6.93698 4.69898 6.15035C4.65287 6.06701 4.6087 5.98666 4.56508 5.91036L5.40057 5.07611L5.81133 4.66484C6.32142 4.15461 6.33549 3.3398 5.84447 2.84819L3.37352 0.376688C2.8825 -0.114238 2.0671 -0.099345 1.55701 0.410887L0.860607 1.11128L0.879637 1.13018C0.646126 1.42813 0.450997 1.77178 0.305787 2.14237C0.171932 2.49512 0.0885941 2.83173 0.0504876 3.16903C-0.275785 5.87391 0.960263 8.34596 4.31474 11.7005C8.95164 16.3371 12.6884 15.9868 12.8496 15.9697C13.2007 15.9277 13.5372 15.8438 13.8791 15.711C14.2465 15.5675 14.5899 15.3727 14.8877 15.1397L14.9029 15.1532L15.6084 14.4624C16.1174 13.9522 16.1321 13.1371 15.6413 12.6447Z" fill="#37B446"/>
</svg>
