<svg width="18" height="16" viewBox="0 0 18 16" fill="none" xmlns="http://www.w3.org/2000/svg">
<path d="M16.3926 15.0715C16.7973 15.0715 17.1478 14.9379 17.4459 14.6741L12.3462 9.57425C12.2238 9.66186 12.1053 9.74706 11.9932 9.82808C11.6116 10.1093 11.3018 10.3287 11.064 10.4859C10.8262 10.6435 10.5098 10.8041 10.1148 10.9681C9.71958 11.1323 9.35137 11.2141 9.0098 11.2141H8.9998H8.9898C8.6482 11.2141 8.27999 11.1323 7.88479 10.9681C7.48959 10.8041 7.17318 10.6435 6.9356 10.4859C6.69779 10.3287 6.38821 10.1093 6.00637 9.82808C5.89997 9.75007 5.78196 9.66448 5.65438 9.57288L0.553711 14.6741C0.85172 14.9379 1.20254 15.0715 1.60712 15.0715H16.3926Z" fill="#37B446"/>
<path d="M1.01462 6.36283C0.633012 6.10841 0.294611 5.81704 0 5.48883V13.2479L4.49485 8.75304C3.59562 8.12526 2.43702 7.32944 1.01462 6.36283Z" fill="#37B446"/>
<path d="M16.9956 6.36283C15.6275 7.28885 14.4647 8.08604 13.5071 8.75484L18.0001 13.2481V5.48883C17.712 5.81043 17.3773 6.10161 16.9956 6.36283Z" fill="#37B446"/>
<path d="M16.3928 0.928589H1.60729C1.09146 0.928589 0.694891 1.10277 0.417078 1.45078C0.139036 1.79896 0.000244141 2.23439 0.000244141 2.75658C0.000244141 3.17838 0.184429 3.63541 0.552635 4.1278C0.920841 4.62 1.31264 5.0066 1.72784 5.28781C1.95546 5.44863 2.64187 5.92582 3.78708 6.71923C4.40528 7.14763 4.9429 7.52104 5.4049 7.84326C5.7987 8.11764 6.13831 8.35526 6.4187 8.55245C6.45089 8.57503 6.50151 8.61124 6.5687 8.65928C6.64109 8.71128 6.73269 8.77726 6.8457 8.85886C7.06332 9.01624 7.2441 9.14347 7.38809 9.24066C7.53188 9.33788 7.7061 9.44648 7.91048 9.56707C8.1147 9.68749 8.30731 9.77805 8.4881 9.83828C8.66892 9.89847 8.83631 9.92867 8.99029 9.92867H9.00029H9.01029C9.16425 9.92867 9.33167 9.89847 9.51252 9.83828C9.69327 9.77805 9.88573 9.68769 10.0901 9.56707C10.2943 9.44648 10.4683 9.33765 10.6125 9.24066C10.7565 9.14347 10.9373 9.01628 11.155 8.85886C11.2677 8.77726 11.3593 8.71124 11.4317 8.65944C11.4989 8.61121 11.5495 8.57523 11.5819 8.55245C11.8004 8.40045 12.1407 8.16382 12.5984 7.84604C13.4312 7.26744 14.6576 6.41583 16.2828 5.28781C16.7716 4.9464 17.18 4.53441 17.5082 4.05241C17.8358 3.57041 18 3.06482 18 2.53579C18 2.0938 17.8408 1.71559 17.523 1.40059C17.2048 1.08598 16.828 0.928589 16.3928 0.928589Z" fill="#37B446"/>
</svg>
