<svg width="52" height="52" viewBox="0 0 52 52" fill="none" xmlns="http://www.w3.org/2000/svg">
<g clip-path="url(#clip0)">
<path d="M47.4302 9.07983H10.3301C7.81001 9.07983 5.75977 11.1301 5.75977 13.6501V16.1902H41.671C45.8712 16.1902 49.2882 19.6073 49.2882 23.8074V38.3667C50.8847 37.6532 52.0006 36.0513 52.0006 34.1926V13.6501C52.0006 11.1301 49.9503 9.07983 47.4302 9.07983Z" fill="#38B943"/>
<path d="M0 39.9122V41.3498C0 43.8699 2.05024 45.9202 4.57031 45.9202H41.6705C44.1906 45.9202 46.2408 43.8699 46.2408 41.3498V39.9122H0Z" fill="#38B943"/>
<path d="M41.6705 19.2371H4.57031C2.05024 19.2371 0 21.2873 0 23.8074V35.8732H46.2408V23.8074C46.2408 21.2873 44.1906 19.2371 41.6705 19.2371Z" fill="#38B943"/>
</g>
<defs>
<clipPath id="clip0">
<rect width="52" height="52" fill="white"/>
</clipPath>
</defs>
</svg>
