<svg width="64" height="32" viewBox="0 0 64 32" fill="none" xmlns="http://www.w3.org/2000/svg">
<path d="M9.14272 7.99995C9.14272 9.26222 8.11928 10.2857 6.857 10.2857C5.59473 10.2857 4.57129 9.26222 4.57129 7.99995C4.57129 6.73767 5.59473 5.71423 6.857 5.71423C8.11928 5.71423 9.14272 6.73767 9.14272 7.99995Z" fill="#38B943"/>
<path d="M49.7143 28.5714C47.0859 28.5714 44.9141 26.6283 44.5714 24H0V30.8571C0 31.543 0.457031 32 1.14286 32H62.8571C63.543 32 64 31.543 64 30.8571V24H54.8571C54.5145 26.6283 52.3426 28.5714 49.7143 28.5714ZM19.4286 29.7143H2.28571V27.4286H19.4286V29.7143Z" fill="#38B943"/>
<path d="M0 0V21.7143H46.8571V23.4286C46.8571 25.0285 48.1144 26.2857 49.7143 26.2857C51.3142 26.2857 52.5714 25.0285 52.5714 23.4286V21.7143H64V0H0ZM6.85714 12.5714C4.34263 12.5714 2.28571 10.5145 2.28571 8C2.28571 5.48549 4.34263 3.42857 6.85714 3.42857C9.37165 3.42857 11.4286 5.48549 11.4286 8C11.4286 10.5145 9.37165 12.5714 6.85714 12.5714ZM25.1429 11.4286H13.7143V9.14286H25.1429V11.4286ZM32 6.85714H13.7143V4.57143H32V6.85714Z" fill="#38B943"/>
</svg>
