<svg width="49" height="49" viewBox="0 0 49 49" fill="none" xmlns="http://www.w3.org/2000/svg">
<g clip-path="url(#clip0)">
<path d="M39.1868 23.1343H5.52615C3.20596 23.1343 1.3186 25.0217 1.3186 27.3418V44.3591C1.3186 46.6792 3.20605 48.5667 5.52615 48.5667H39.1868C41.5069 48.5667 43.3943 46.6792 43.3943 44.3591V27.3418C43.3943 25.0217 41.5069 23.1343 39.1868 23.1343ZM5.52615 45.7617C4.75362 45.7617 4.12363 45.133 4.12363 44.3591V41.7533C6.08515 42.2632 7.62206 43.7998 8.13206 45.7617H5.52615ZM4.12363 29.9476V27.3418C4.12363 26.568 4.75362 25.9393 5.52615 25.9393H8.13206C7.62206 27.9012 6.08515 29.4377 4.12363 29.9476ZM22.3565 42.9566C18.4887 42.9566 15.3439 39.7171 15.3439 35.8505C15.3439 31.984 18.4887 28.7444 22.3565 28.7444C26.2244 28.7444 29.3692 31.984 29.3692 35.8505C29.3691 39.7171 26.2244 42.9566 22.3565 42.9566ZM40.5893 44.3591C40.5893 45.133 39.9593 45.7617 39.1868 45.7617H36.5809C37.091 43.7998 38.6278 42.2632 40.5893 41.7533V44.3591ZM40.5893 29.9476C38.6278 29.4377 37.0909 27.9012 36.5809 25.9393H39.1868C39.9593 25.9393 40.5893 26.568 40.5893 27.3418V29.9476Z" fill="#38B943"/>
<path d="M22.3565 31.5493C20.0364 31.5493 18.1489 33.5303 18.1489 35.8504C18.1489 38.1705 20.0364 40.1515 22.3565 40.1515C24.6766 40.1515 26.564 38.1706 26.564 35.8504C26.564 33.5302 24.6766 31.5493 22.3565 31.5493Z" fill="#38B943"/>
<path d="M28.2736 17.8503C27.2957 15.7478 24.7892 14.837 22.6799 15.815C21.6637 16.2903 20.8912 17.1326 20.5077 18.1886C20.2528 18.8853 20.2074 19.6176 20.3294 20.3294H28.5946C28.7341 19.5121 28.6467 18.6503 28.2736 17.8503Z" fill="#38B943"/>
<path d="M47.0844 18.3638L45.3071 14.5531L45.3067 14.5506C45.3067 14.5506 45.3056 14.5494 45.3053 14.5488L39.9705 3.10989C38.9925 1.00883 36.4805 0.095273 34.3795 1.07458L30.5656 2.85326L30.5637 2.85373L30.5622 2.85494L7.69148 13.5212C7.69026 13.5217 7.68895 13.5216 7.68895 13.5216C7.68652 13.5226 7.68568 13.524 7.68446 13.5245L3.87468 15.3013C1.77026 16.2799 0.849869 18.7704 1.83666 20.8922L2.02717 21.3007C2.83477 20.8309 3.73832 20.5267 4.708 20.4121L4.37879 19.7061C4.05098 19.008 4.35382 18.1728 5.05816 17.8433L7.42044 16.7416C7.64967 17.9915 7.39968 19.2386 6.82898 20.3292H17.5081C17.4026 19.2919 17.504 18.2386 17.8699 17.2298C18.5108 15.4698 19.7984 14.0645 21.4967 13.2729C24.9975 11.643 29.1833 13.1606 30.8159 16.6642C31.3669 17.8454 31.5427 19.1089 31.4171 20.3294H39.1872C39.9984 20.3294 40.7652 20.4951 41.4904 20.7495C41.6793 19.3787 42.344 18.0946 43.441 17.188L44.5426 19.5501C44.8702 20.248 44.5674 21.0831 43.863 21.4126L43.2893 21.6802C44.0763 22.2522 44.7273 22.9848 45.2203 23.8279C47.3618 22.6955 47.9791 20.2877 47.0844 18.3638ZM33.2016 4.71789L35.5629 3.61671C36.2586 3.29077 37.0969 3.59342 37.4283 4.29608L38.529 6.6563C36.5335 7.02218 34.4915 6.27846 33.2016 4.71789Z" fill="#38B943"/>
</g>
<defs>
<clipPath id="clip0">
<rect x="0.457275" y="0.681396" width="47.8853" height="47.8853" fill="white"/>
</clipPath>
</defs>
</svg>
