<svg width="49" height="49" viewBox="0 0 49 49" fill="none" xmlns="http://www.w3.org/2000/svg">
<g clip-path="url(#clip0)">
<path d="M39.1869 23.1342H5.52627C3.20608 23.1342 1.31873 25.0217 1.31873 27.3418V44.3591C1.31873 46.6792 3.20617 48.5666 5.52627 48.5666H39.1869C41.507 48.5666 43.3944 46.6792 43.3944 44.3591V27.3418C43.3944 25.0217 41.507 23.1342 39.1869 23.1342ZM5.52627 45.7616C4.75375 45.7616 4.12375 45.1329 4.12375 44.3591V41.7533C6.08527 42.2632 7.62219 43.7997 8.13218 45.7616H5.52627ZM4.12375 29.9476V27.3418C4.12375 26.5679 4.75375 25.9392 5.52627 25.9392H8.13218C7.62219 27.9011 6.08527 29.4377 4.12375 29.9476ZM22.3566 42.9566C18.4888 42.9566 15.3441 39.717 15.3441 35.8505C15.3441 31.9839 18.4888 28.7444 22.3566 28.7444C26.2245 28.7444 29.3693 31.9839 29.3693 35.8505C29.3692 39.717 26.2245 42.9566 22.3566 42.9566ZM40.5894 44.3591C40.5894 45.1329 39.9594 45.7616 39.1869 45.7616H36.581C37.0911 43.7997 38.6279 42.2632 40.5894 41.7533V44.3591ZM40.5894 29.9476C38.6279 29.4377 37.091 27.9011 36.581 25.9392H39.1869C39.9594 25.9392 40.5894 26.5679 40.5894 27.3418V29.9476Z" fill="#38B943"/>
<path d="M22.3565 31.5493C20.0364 31.5493 18.1489 33.5303 18.1489 35.8504C18.1489 38.1705 20.0364 40.1515 22.3565 40.1515C24.6766 40.1515 26.564 38.1706 26.564 35.8504C26.564 33.5302 24.6766 31.5493 22.3565 31.5493Z" fill="#38B943"/>
<path d="M28.2736 17.8502C27.2957 15.7478 24.7892 14.8369 22.6799 15.8149C21.6637 16.2902 20.8912 17.1325 20.5077 18.1885C20.2528 18.8853 20.2074 19.6176 20.3294 20.3293H28.5946C28.7341 19.5121 28.6467 18.6502 28.2736 17.8502Z" fill="#38B943"/>
<path d="M47.0843 18.3637L45.307 14.553L45.3066 14.5506C45.3066 14.5506 45.3055 14.5494 45.3051 14.5487L39.9703 3.10983C38.9923 1.00877 36.4804 0.0952119 34.3794 1.07452L30.5655 2.8532L30.5636 2.85367L30.5621 2.85488L7.69136 13.5211C7.69014 13.5216 7.68883 13.5215 7.68883 13.5215C7.6864 13.5225 7.68556 13.5239 7.68434 13.5244L3.87456 15.3012C1.77014 16.2799 0.849747 18.7704 1.83654 20.8921L2.02705 21.3006C2.83465 20.8308 3.7382 20.5266 4.70788 20.412L4.37867 19.706C4.05086 19.0079 4.3537 18.1727 5.05804 17.8433L7.42032 16.7415C7.64955 17.9914 7.39956 19.2386 6.82886 20.3292H17.508C17.4025 19.2919 17.5039 18.2386 17.8698 17.2297C18.5107 15.4698 19.7983 14.0644 21.4966 13.2728C24.9974 11.643 29.1832 13.1605 30.8157 16.6642C31.3668 17.8453 31.5425 19.1088 31.417 20.3294H39.1871C39.9983 20.3294 40.7651 20.4951 41.4903 20.7495C41.6791 19.3787 42.3438 18.0946 43.4409 17.1879L44.5424 19.55C44.8701 20.2479 44.5672 21.0831 43.8629 21.4126L43.2892 21.6802C44.0762 22.2522 44.7272 22.9847 45.2201 23.8278C47.3617 22.6955 47.979 20.2876 47.0843 18.3637ZM33.2015 4.71782L35.5627 3.61665C36.2585 3.29071 37.0968 3.59336 37.4282 4.29602L38.5289 6.65624C36.5334 7.02212 34.4914 6.2784 33.2015 4.71782Z" fill="#38B943"/>
</g>
<defs>
<clipPath id="clip0">
<rect x="0.457275" y="0.681335" width="47.8853" height="47.8853" fill="white"/>
</clipPath>
</defs>
</svg>
