<svg width="49" height="49" viewBox="0 0 49 49" fill="none" xmlns="http://www.w3.org/2000/svg">
<g clip-path="url(#clip0)">
<path d="M32.7816 0.855957C32.7816 0.855957 37.0119 11.2052 18.8815 18.1567C9.02979 21.9329 1.46314 31.6117 10.4977 46.563C11.2459 39.88 14.4542 25.1449 28.2496 21.7824C28.2496 21.7824 15.4097 26.5836 14.2754 48.3167C20.8731 49.2431 36.3467 49.8655 40.9407 36.4375C47.0072 18.6961 32.7816 0.855957 32.7816 0.855957Z" fill="#38B943"/>
<path d="M14.2814 48.2263C28.2878 42.6364 38.4792 29.5414 39.8857 13.9092C37.0223 6.18539 32.7816 0.855957 32.7816 0.855957C32.7816 0.855957 37.0119 11.2052 18.8815 18.1567C9.02979 21.9329 1.46314 31.6117 10.4977 46.563C11.2459 39.88 14.4542 25.1449 28.2496 21.7824C28.2489 21.7825 15.4471 26.5718 14.2814 48.2263Z" fill="#38B943"/>
<path d="M9.10065 18.5017C9.82381 18.5017 10.41 17.9155 10.41 17.1923C10.41 16.4692 9.82381 15.8829 9.10065 15.8829C8.3775 15.8829 7.79126 16.4692 7.79126 17.1923C7.79126 17.9155 8.3775 18.5017 9.10065 18.5017Z" fill="#38B943"/>
<path d="M13.2155 16.8181C13.732 16.8181 14.1508 16.3994 14.1508 15.8829C14.1508 15.3664 13.732 14.9476 13.2155 14.9476C12.699 14.9476 12.2803 15.3664 12.2803 15.8829C12.2803 16.3994 12.699 16.8181 13.2155 16.8181Z" fill="#38B943"/>
<path d="M12.374 9.33612C13.6653 9.33612 14.7121 8.28931 14.7121 6.99802C14.7121 5.70672 13.6653 4.65991 12.374 4.65991C11.0827 4.65991 10.0359 5.70672 10.0359 6.99802C10.0359 8.28931 11.0827 9.33612 12.374 9.33612Z" fill="#38B943"/>
<path d="M19.5758 13.0772C19.9891 13.0772 20.3241 12.7422 20.3241 12.329C20.3241 11.9157 19.9891 11.5807 19.5758 11.5807C19.1626 11.5807 18.8276 11.9157 18.8276 12.329C18.8276 12.7422 19.1626 13.0772 19.5758 13.0772Z" fill="#38B943"/>
<path d="M25.8427 10.2713C27.0307 10.2713 27.9938 9.30825 27.9938 8.12025C27.9938 6.93225 27.0307 5.96918 25.8427 5.96918C24.6547 5.96918 23.6917 6.93225 23.6917 8.12025C23.6917 9.30825 24.6547 10.2713 25.8427 10.2713Z" fill="#38B943"/>
</g>
<defs>
<clipPath id="clip0">
<rect x="0.508057" y="0.855957" width="47.8853" height="47.8853" fill="white"/>
</clipPath>
</defs>
</svg>
