<svg width="38" height="45" viewBox="0 0 38 45" fill="none" xmlns="http://www.w3.org/2000/svg">
<path d="M25.2197 13.3004C22.8331 13.8658 20.9503 15.7926 20.3975 18.2348C22.7845 17.6694 24.6672 15.7429 25.2197 13.3004Z" fill="#38B943"/>
<path d="M12.6677 23.8462C13.2206 26.2887 15.1034 28.2152 17.49 28.7806C16.9375 26.3381 15.0547 24.4116 12.6677 23.8462Z" fill="#38B943"/>
<path d="M12.6677 13.3004C13.2206 15.7429 15.1034 17.6694 17.49 18.2348C16.9375 15.7926 15.0547 13.8658 12.6677 13.3004Z" fill="#38B943"/>
<path d="M35.4518 7.31574C36.9797 5.28106 36.9793 3.42077 36.9793 1.29374V1.26697C36.9793 0.53919 36.4026 -0.0512694 35.6911 -0.0512694H35.5934C33.6063 -0.0516126 31.8641 -0.051956 29.9227 1.40497C26.6312 0.470532 22.7939 -0.0444036 19.0317 -0.0512694C15.2038 -0.0577919 11.3037 0.457143 7.96497 1.40497C6.02316 -0.051956 4.2793 -0.0502395 2.29354 -0.0512694H2.19592C1.48468 -0.0512694 0.907641 0.538847 0.907641 1.26697V1.29374C0.907641 3.42077 0.907641 5.28071 2.43545 7.31574C1.14013 13.2217 0.564436 18.311 0.627173 23.2825C0.682864 27.7209 1.24212 32.1538 2.43545 37.5775C0.907641 39.6121 0.907641 41.4724 0.907641 43.5995V43.6262C0.907641 44.354 1.48468 44.9441 2.19592 44.9441H2.2922C4.28332 44.9445 6.02518 44.9452 7.96765 43.4858C11.296 44.4288 15.1662 44.9445 18.9572 44.9445C18.9821 44.9445 19.0069 44.9445 19.0317 44.9441C22.7801 44.9376 26.6168 44.422 29.9193 43.4858C31.8621 44.9452 33.6067 44.9438 35.5951 44.9441H35.6911C36.4026 44.9441 36.9793 44.354 36.9793 43.6262V43.5995C36.9793 41.4724 36.9793 39.6121 35.4518 37.5775C36.6375 32.1885 37.1967 27.7916 37.2598 23.3999C37.3316 18.3899 36.7562 13.2629 35.4518 7.31574ZM26.6731 21.0405C27.3847 21.0405 27.9614 21.6306 27.9614 22.3587C27.9614 26.9993 24.5961 30.85 20.2318 31.4916V35.6289C20.2318 36.3571 19.6551 36.9472 18.9435 36.9472C18.2322 36.9472 17.6552 36.3571 17.6552 35.6289V31.4916C13.2908 30.85 9.9259 26.9993 9.9259 22.3587C9.9259 21.6306 10.5026 21.0405 11.2142 21.0405C13.735 21.0405 16.0174 22.105 17.6552 23.8174V20.9461C13.2908 20.3045 9.9259 16.4534 9.9259 11.8128C9.9259 11.0847 10.5026 10.4946 11.2142 10.4946C13.735 10.4946 16.0174 11.5592 17.6552 13.2715V11.8128C17.6552 11.0847 18.2322 10.4946 18.9435 10.4946C19.6551 10.4946 20.2318 11.0847 20.2318 11.8128V13.2715C21.8699 11.5592 24.1523 10.4946 26.6731 10.4946C27.3847 10.4946 27.9614 11.0847 27.9614 11.8128C27.9614 16.4534 24.5961 20.3045 20.2318 20.9461V23.8174C21.8699 22.105 24.1523 21.0405 26.6731 21.0405Z" fill="#38B943"/>
<path d="M25.2197 23.8462C22.8331 24.4116 20.9503 26.3381 20.3975 28.7806C22.7845 28.2152 24.6672 26.2887 25.2197 23.8462Z" fill="#38B943"/>
</svg>
