<svg width="46" height="46" viewBox="0 0 46 46" fill="none" xmlns="http://www.w3.org/2000/svg">
<g clip-path="url(#clip0)">
<path d="M14.2286 21.9129C13.9156 21.877 13.6006 21.8583 13.2853 21.8573H11.7893L14.2286 24.2966V21.9129Z" fill="#38B943"/>
<path d="M10.4561 23.1909V24.6869C10.4547 26.3669 10.9545 28.009 11.8916 29.4031H16.6679L10.4561 23.1909Z" fill="#38B943"/>
<path d="M13.6218 31.2894C15.1275 32.5104 17.0068 33.1763 18.9453 33.1756H20.4412L18.5549 31.2894H13.6218Z" fill="#38B943"/>
<path d="M15.7914 0.16394H4.4371L0.664551 7.70938H13.5276L15.7914 0.16394Z" fill="#38B943"/>
<path d="M32.15 9.59601V16.1981C32.15 16.719 31.7276 17.1415 31.2067 17.1415H14.2292C13.7083 17.1415 13.2859 16.719 13.2859 16.1981V9.59601H0.0812988V45.4373H45.3546V9.59601H32.15ZM32.15 42.6077H13.2859V40.7214H32.15V42.6077ZM16.1155 38.8348V36.9485H29.3205V38.8348H16.1155ZM36.8659 24.6869C36.859 30.4141 32.2181 35.0554 26.4909 35.0623H18.9451C13.2179 35.0554 8.57696 30.4141 8.57005 24.6869V20.9143C8.57005 20.3935 8.99249 19.971 9.51336 19.971H13.2859C17.3483 19.9773 21.0338 22.3523 22.718 26.0492C24.4022 22.3523 28.0877 19.9773 32.15 19.971H35.9226C36.4435 19.971 36.8659 20.3935 36.8659 20.9143V24.6869Z" fill="#38B943"/>
<path d="M29.9385 7.70938L27.6747 0.16394H17.7601L15.4963 7.70938H29.9385Z" fill="#38B943"/>
<path d="M15.1724 9.59601H30.2632V15.2552H15.1724V9.59601Z" fill="#38B943"/>
<path d="M44.7716 7.70938L40.999 0.16394H29.6448L31.9086 7.70938H44.7716Z" fill="#38B943"/>
<path d="M33.5439 29.4031C34.481 28.009 34.9808 26.3669 34.9794 24.6869V23.1909L28.7676 29.4031H33.5439Z" fill="#38B943"/>
<path d="M29.3201 22.3526C25.933 23.5525 23.6671 26.7531 23.6609 30.346V31.842L29.3201 26.1828V22.3526Z" fill="#38B943"/>
<path d="M16.1155 22.3526V26.1828L21.7746 31.842V30.346C21.7684 26.7531 19.5026 23.5525 16.1155 22.3526Z" fill="#38B943"/>
<path d="M24.9949 33.1756H26.4908C28.4289 33.1763 30.3086 32.5104 31.8139 31.2894H26.8811L24.9949 33.1756Z" fill="#38B943"/>
<path d="M32.1501 21.8573C31.8347 21.8583 31.5197 21.877 31.2068 21.9129V24.2966L33.6461 21.8573H32.1501Z" fill="#38B943"/>
</g>
<defs>
<clipPath id="clip0">
<rect x="0.0812988" y="0.16394" width="45.2733" height="45.2733" fill="white"/>
</clipPath>
</defs>
</svg>
