<svg width="18" height="18" viewBox="0 0 18 18" fill="none" xmlns="http://www.w3.org/2000/svg">
<path d="M16.9453 9C16.9453 4.63815 13.3618 1.05469 9 1.05469C8.82999 1.05469 8.62646 1.06032 8.45906 1.07062C7.5461 0.378479 6.42288 0 5.27344 0C2.36591 0 0 2.40106 0 5.30859C0 6.45804 0.378479 7.58125 1.07062 8.49422C1.06032 8.66162 1.05469 8.82999 1.05469 9C1.05469 13.3618 4.63815 16.9453 9 16.9453C9.17001 16.9453 9.33838 16.9397 9.50578 16.9294C10.4187 17.6215 11.542 18 12.6914 18C15.5989 18 18 15.6341 18 12.7266C18 11.5771 17.6215 10.4187 16.9294 9.50578C16.9397 9.33838 16.9453 9.17001 16.9453 9ZM9 14.3086C7.94792 14.3086 6.91013 14.0258 6.14218 13.5135C5.46954 13.0647 4.87724 12.4512 5.22757 11.7224C5.59039 10.9792 6.60251 11.0087 6.99348 11.4901C7.27364 11.8346 8.09775 12.1838 9.06427 12.1838C9.8476 12.1838 11.1094 11.7719 11.1094 11.1445C11.1094 10.5114 9.85158 10.0547 9 10.0547C6.39088 10.0547 4.74609 8.47389 4.74609 6.89062C4.74609 5.35309 6.23625 3.7896 8.99739 3.78864C10.0433 3.78822 11.0897 4.03239 11.8221 4.5217C12.4952 4.96994 13.0876 5.58394 12.7373 6.31274C12.3968 7.01024 11.4111 7.08755 10.9708 6.54401C10.6912 6.20055 9.90225 5.85132 8.93559 5.85132C8.1524 5.85132 6.85547 6.26331 6.85547 6.89062C6.85547 7.52371 8.14842 7.94531 9 7.94531C11.6091 7.94531 13.2188 9.56126 13.2188 11.1445C13.2188 12.7352 11.6018 14.3086 9 14.3086Z" fill="#37B446"/>
</svg>
